<?xml version="1.0" standalone="no"?>
<!DOCTYPE svg PUBLIC "-//W3C//DTD SVG 20010904//EN"
 "http://www.w3.org/TR/2001/REC-SVG-20010904/DTD/svg10.dtd">
<svg version="1.0" xmlns="http://www.w3.org/2000/svg"
 width="1280.000000pt" height="986.000000pt" viewBox="0 0 1280.000000 986.000000"
 preserveAspectRatio="xMidYMid meet">
<metadata>
Created by potrace 1.15, written by Peter Selinger 2001-2017
</metadata>
<g transform="translate(0.000000,986.000000) scale(0.100000,-0.100000)"
fill="#000000" stroke="none">
<path d="M10083 9535 c-122 -27 -240 -70 -383 -142 -149 -74 -198 -105 -595
-374 -239 -162 -280 -188 -231 -147 l30 25 -45 26 c-24 14 -63 30 -87 35 -39
9 -46 7 -105 -29 -65 -41 -55 -32 52 48 91 68 106 91 106 167 0 50 -5 70 -25
99 -43 63 -135 94 -204 67 -29 -11 -7042 -4830 -7211 -4955 -672 -497 -1000
-1001 -1044 -1606 -37 -496 -39 -875 -7 -994 43 -157 100 -260 205 -368 87
-90 168 -147 326 -229 72 -37 126 -68 122 -68 -4 0 -26 9 -48 21 -66 33 -55
16 23 -38 149 -101 365 -198 723 -324 113 -40 173 -57 375 -110 258 -68 540
-98 725 -79 151 16 341 59 423 96 18 9 41 17 51 19 37 7 338 161 400 204 14
10 31 20 36 22 13 5 114 71 436 284 142 94 333 219 426 279 179 116 260 169
523 341 284 185 363 237 437 287 39 26 74 48 77 48 7 0 961 638 1436 960 566
384 615 417 660 449 25 17 140 95 255 173 116 77 219 148 230 158 11 9 109 78
219 151 109 74 289 196 400 272 268 183 583 397 910 619 476 324 789 539 796
548 3 4 32 25 65 48 33 23 85 60 115 82 30 22 82 59 115 82 33 22 62 44 65 48
3 3 21 17 40 30 30 21 100 72 265 193 201 148 523 422 665 566 189 191 295
347 353 521 32 94 61 263 52 294 -2 6 -6 43 -9 82 -10 122 -68 279 -159 429
-58 95 -75 115 -53 61 9 -22 15 -41 12 -43 -2 -2 -10 13 -19 35 -41 103 -126
224 -332 473 -524 631 -705 847 -756 898 -135 134 -307 230 -479 266 -88 18
-272 18 -357 0z m692 -630 c40 -49 244 -297 454 -550 341 -412 386 -470 431
-560 28 -55 57 -127 65 -160 76 -304 -135 -602 -760 -1071 -66 -49 -136 -100
-155 -113 l-35 -23 29 25 29 25 -52 11 c-78 16 -92 14 -149 -24 -28 -20 -52
-33 -52 -31 0 3 34 28 75 57 80 55 109 92 120 152 15 79 -52 178 -130 193 -67
12 -108 -1 -206 -67 -52 -34 -1136 -772 -2409 -1639 -2581 -1756 -2696 -1834
-2957 -1979 -338 -188 -561 -196 -983 -35 -111 42 -361 179 -431 236 -19 16
-16 15 15 -3 l39 -23 -16 30 c-39 70 -50 128 -53 269 -2 105 2 164 16 235 73
373 201 658 389 865 151 167 423 388 781 633 63 43 135 93 160 111 25 17 125
87 224 154 98 67 262 179 365 250 102 70 222 152 266 181 44 30 123 84 175
121 52 36 131 91 175 121 44 30 121 82 171 116 50 35 179 123 285 195 107 73
273 187 369 253 96 66 234 160 305 209 72 48 150 102 175 120 25 17 99 68 165
113 66 45 150 103 186 128 36 25 120 81 185 126 65 45 146 100 179 123 33 23
96 67 140 96 44 30 121 83 171 117 152 105 420 288 538 369 61 42 136 93 167
115 222 154 297 206 392 271 59 40 110 73 112 73 3 0 31 17 62 37 83 53 106
66 218 122 195 96 291 123 450 124 102 0 160 -11 228 -43 20 -10 37 -16 37
-14 0 2 -15 20 -32 41 -18 21 -24 31 -14 23 11 -8 52 -55 91 -105z m-1135 40
c0 -2 -10 -9 -22 -15 -22 -11 -22 -10 -4 4 21 17 26 19 26 11z m2410 -1130 c0
-5 -5 -3 -10 5 -5 8 -10 20 -10 25 0 6 5 3 10 -5 5 -8 10 -19 10 -25z m-280
-1028 c0 -1 -39 -41 -87 -87 l-88 -85 85 88 c79 81 90 92 90 84z m-210 -200
c0 -2 -17 -19 -37 -38 l-38 -34 34 38 c33 34 41 42 41 34z m-90 -81 c0 -2 -8
-10 -17 -17 -16 -13 -17 -12 -4 4 13 16 21 21 21 13z m-7860 -1339 c0 -2 -10
-12 -22 -23 l-23 -19 19 23 c18 21 26 27 26 19z m-470 -31 c0 -2 -8 -10 -17
-17 -16 -13 -17 -12 -4 4 13 16 21 21 21 13z m337 -128 c-71 -95 -142 -227
-187 -349 -17 -46 -66 -212 -108 -369 l-77 -285 0 -195 c1 -167 4 -207 23
-283 65 -258 184 -394 515 -587 59 -34 107 -64 107 -66 0 -3 -13 2 -30 11 -50
26 -34 11 43 -41 84 -57 92 -61 217 -124 119 -60 149 -73 230 -100 36 -13 72
-26 81 -31 9 -4 27 -10 40 -13 13 -3 53 -12 89 -21 149 -37 168 -40 250 -50
25 -3 59 -8 75 -10 17 -3 55 -7 85 -11 30 -3 75 -10 100 -14 37 -7 51 -5 78
12 17 11 32 17 32 15 0 -9 -422 -289 -860 -572 -228 -148 -521 -339 -650 -425
-427 -285 -648 -393 -880 -430 -152 -24 -401 -7 -610 41 -255 59 -653 197
-915 318 -96 45 -241 127 -251 142 -3 5 12 -1 33 -13 37 -22 38 -22 20 -1 -28
32 -65 153 -78 251 -11 85 -14 398 -4 517 2 33 7 96 10 140 35 447 211 802
569 1142 124 118 337 290 481 389 16 11 55 38 85 59 30 22 91 64 135 94 44 30
118 81 165 113 47 32 148 101 225 154 77 52 167 114 200 138 111 79 369 252
447 299 92 56 258 140 275 140 7 0 31 22 53 49 62 73 56 58 -13 -34z m-467 38
c0 -2 -8 -10 -17 -17 -16 -13 -17 -12 -4 4 13 16 21 21 21 13z m-170 -120 c0
-2 -12 -11 -27 -20 l-28 -17 24 20 c23 21 31 25 31 17z m-150 -100 c0 -2 -8
-10 -17 -17 -16 -13 -17 -12 -4 4 13 16 21 21 21 13z m-170 -120 c0 -2 -12
-11 -27 -20 l-28 -17 24 20 c23 21 31 25 31 17z m-150 -100 c0 -2 -8 -10 -17
-17 -16 -13 -17 -12 -4 4 13 16 21 21 21 13z m-190 -130 c0 -2 -8 -10 -17 -17
-16 -13 -17 -12 -4 4 13 16 21 21 21 13z m-160 -110 c0 -2 -8 -10 -17 -17 -16
-13 -17 -12 -4 4 13 16 21 21 21 13z m-160 -110 c0 -2 -8 -10 -17 -17 -16 -13
-17 -12 -4 4 13 16 21 21 21 13z m-130 -90 c0 -2 -8 -10 -17 -17 -16 -13 -17
-12 -4 4 13 16 21 21 21 13z m-70 -50 c0 -3 -15 -14 -32 -26 l-33 -22 30 26
c31 27 35 29 35 22z m-70 -50 c0 -2 -8 -10 -17 -17 -16 -13 -17 -12 -4 4 13
16 21 21 21 13z m-40 -30 c0 -2 -8 -10 -17 -17 -16 -13 -17 -12 -4 4 13 16 21
21 21 13z m-80 -64 c-24 -20 -78 -66 -120 -102 -41 -35 -68 -56 -60 -45 17 21
212 185 220 184 3 0 -15 -17 -40 -37z m1987 -154 c-3 -7 -5 -2 -5 12 0 14 2
19 5 13 2 -7 2 -19 0 -25z m-2273 -100 c-50 -51 -118 -129 -153 -173 -71 -90
-99 -120 -56 -60 64 90 276 325 293 325 3 0 -35 -42 -84 -92z m2273 60 c-3 -8
-6 -5 -6 6 -1 11 2 17 5 13 3 -3 4 -12 1 -19z m-2523 -363 c-9 -14 -18 -25
-21 -25 -5 0 5 18 20 38 17 22 18 13 1 -13z m-77 -134 c-29 -55 -53 -98 -55
-96 -4 3 39 90 75 153 45 76 33 44 -20 -57z m2969 -449 c-5 -4 -66 26 -66 33
0 3 16 -3 35 -12 19 -9 33 -18 31 -21z m94 -32 c8 -5 11 -10 5 -10 -5 0 -17 5
-25 10 -8 5 -10 10 -5 10 6 0 17 -5 25 -10z m-3223 -72 c-3 -8 -6 -5 -6 6 -1
11 2 17 5 13 3 -3 4 -12 1 -19z m3153 -1442 c0 -2 -8 -10 -17 -17 -16 -13 -17
-12 -4 4 13 16 21 21 21 13z"/>
<path d="M11986 7967 c3 -10 9 -15 12 -12 3 3 0 11 -7 18 -10 9 -11 8 -5 -6z"/>
</g>
</svg>
